<svg xmlns="http://www.w3.org/2000/svg" width="227.753" height="20.597" viewBox="0 0 227.753 20.597">
  <path id="SQL_builder" data-name="SQL builder" d="M14.285,22.337a6.5,6.5,0,0,1-1.935,5.015A7.447,7.447,0,0,1,7.08,29.146,9.5,9.5,0,0,1-.238,25.84L2.446,21.97a8.4,8.4,0,0,0,2.19,1.667A4.467,4.467,0,0,0,6.6,24.2a1.657,1.657,0,0,0,1.286-.509,2.145,2.145,0,0,0,.466-1.5v-8.42H1.627V9.086H14.285ZM28.818,9.086a12.061,12.061,0,0,1,4.012.607,5.875,5.875,0,0,1,2.656,1.738,4.045,4.045,0,0,1,.932,2.656,4.2,4.2,0,0,1-.9,2.656,4.675,4.675,0,0,1-2.458,1.61,4.787,4.787,0,0,1,2.9,1.738,5.089,5.089,0,0,1,1.088,3.263,4.682,4.682,0,0,1-.961,2.924,6.061,6.061,0,0,1-2.727,1.935,11.432,11.432,0,0,1-4.111.678H19.1V9.086Zm-.311,7.77a1.97,1.97,0,0,0,1.384-.466,1.622,1.622,0,0,0,.509-1.257,1.5,1.5,0,0,0-.509-1.2,2.051,2.051,0,0,0-1.384-.438h-3.56v3.362Zm0,7.629A2.761,2.761,0,0,0,30.3,24a1.651,1.651,0,0,0,.664-1.384,1.486,1.486,0,0,0-.664-1.286,2.937,2.937,0,0,0-1.794-.438h-3.56v3.588ZM50.922,8.718a11.485,11.485,0,0,1,5.524,1.328,9.856,9.856,0,0,1,3.871,3.659,9.989,9.989,0,0,1,1.4,5.241,10.191,10.191,0,0,1-1.4,5.3,9.893,9.893,0,0,1-3.871,3.7,12.067,12.067,0,0,1-11.062,0,9.919,9.919,0,0,1-3.857-3.7,10.191,10.191,0,0,1-1.4-5.3,9.989,9.989,0,0,1,1.4-5.241,9.881,9.881,0,0,1,3.857-3.659A11.462,11.462,0,0,1,50.922,8.718Zm.085,4.888a4.433,4.433,0,0,0-2.416.706,5.12,5.12,0,0,0-1.78,1.935,5.643,5.643,0,0,0-.664,2.727,5.725,5.725,0,0,0,.664,2.741,5.2,5.2,0,0,0,1.78,1.964,4.37,4.37,0,0,0,2.416.72,4.189,4.189,0,0,0,2.359-.72,4.986,4.986,0,0,0,1.709-1.95,6.017,6.017,0,0,0,.622-2.755,5.954,5.954,0,0,0-.622-2.727,4.92,4.92,0,0,0-1.7-1.935A4.227,4.227,0,0,0,51.007,13.606ZM75.231,8.718a11.485,11.485,0,0,1,5.524,1.328,9.856,9.856,0,0,1,3.871,3.659,9.989,9.989,0,0,1,1.4,5.241,10.191,10.191,0,0,1-1.4,5.3,9.893,9.893,0,0,1-3.871,3.7,12.067,12.067,0,0,1-11.062,0,9.919,9.919,0,0,1-3.857-3.7,10.191,10.191,0,0,1-1.4-5.3,9.989,9.989,0,0,1,1.4-5.241,9.881,9.881,0,0,1,3.857-3.659A11.462,11.462,0,0,1,75.231,8.718Zm.085,4.888a4.433,4.433,0,0,0-2.416.706,5.12,5.12,0,0,0-1.78,1.935,5.643,5.643,0,0,0-.664,2.727,5.725,5.725,0,0,0,.664,2.741,5.2,5.2,0,0,0,1.78,1.964,4.37,4.37,0,0,0,2.416.72,4.189,4.189,0,0,0,2.359-.72,4.986,4.986,0,0,0,1.709-1.95,6.017,6.017,0,0,0,.622-2.755,5.954,5.954,0,0,0-.622-2.727,4.92,4.92,0,0,0-1.7-1.935A4.227,4.227,0,0,0,75.316,13.606ZM109.8,28.892h-7.035L98.127,21.6l-2.2,2.43v4.86H90.047V9.086h5.877v7.939l6.64-7.939h6.781l-7.2,8.024Zm14.091-16.331a2.656,2.656,0,0,0-1.738.523,1.7,1.7,0,0,0-.636,1.384,1.565,1.565,0,0,0,.777,1.37,14.206,14.206,0,0,0,3.588,1.2,10.1,10.1,0,0,1,4.365,2.077,5.129,5.129,0,0,1,1.554,4.04,5.333,5.333,0,0,1-1.992,4.309,7.941,7.941,0,0,1-5.241,1.653,12.131,12.131,0,0,1-8.448-3.475l2.628-3.221q3.193,2.8,5.905,2.8a3.1,3.1,0,0,0,1.907-.523,1.678,1.678,0,0,0,.692-1.413,1.646,1.646,0,0,0-.735-1.413,9.583,9.583,0,0,0-2.91-1.06,12.655,12.655,0,0,1-5.043-2.133,5.037,5.037,0,0,1-1.6-4.125,5.113,5.113,0,0,1,2.02-4.337,8.13,8.13,0,0,1,5.043-1.526,12.13,12.13,0,0,1,3.956.678,10.593,10.593,0,0,1,3.447,1.921L129.2,14.51A8.7,8.7,0,0,0,123.888,12.561ZM148.7,9.142v3.927h-9.833v4.069h8.844V20.9h-8.844v4.1h10.143v3.9H134.464V9.142Zm17.216,19.75-1.837-4.266h-8.279l-1.837,4.266h-4.69l8.533-19.75h4.266l8.533,19.75Zm-5.962-13.873-2.486,5.736h4.945Zm27.868.678q0,4.747-3.758,6.131l5,7.064h-5.425l-4.379-6.3h-3.051v6.3h-4.408V9.142h7.487q4.605,0,6.569,1.554T187.827,15.7Zm-8.392,3.08a4.739,4.739,0,0,0,3.08-.735,2.984,2.984,0,0,0,.819-2.331,2.5,2.5,0,0,0-.848-2.19,5.426,5.426,0,0,0-2.967-.593h-3.306v5.849Zm20.889,6.216a6.5,6.5,0,0,0,5.312-2.571l2.825,2.91a10.659,10.659,0,0,1-15.441.9,9.739,9.739,0,0,1-2.953-7.275,9.829,9.829,0,0,1,3.009-7.332,10.135,10.135,0,0,1,7.36-2.938,10.432,10.432,0,0,1,8.137,3.7L205.834,15.5a6.422,6.422,0,0,0-5.2-2.6,6.059,6.059,0,0,0-4.252,1.625,5.66,5.66,0,0,0-1.766,4.379,5.977,5.977,0,0,0,1.667,4.422A5.5,5.5,0,0,0,200.325,24.993ZM223.107,9.142h4.408v19.75h-4.408v-7.77h-7.855v7.77h-4.408V9.142h4.408v8.25h7.855Z" transform="translate(0.238 -8.69)" fill="#fff"/>
</svg>
