<svg xmlns="http://www.w3.org/2000/svg" xmlns:xlink="http://www.w3.org/1999/xlink" width="366.886" height="39.536" viewBox="0 0 366.886 39.536">
  <defs>
    <linearGradient id="linear-gradient" x1="0.309" y1="1" x2="0.958" y2="-0.528" gradientUnits="objectBoundingBox">
      <stop offset="0" stop-color="#131e43"/>
      <stop offset="1" stop-color="#edf1f2"/>
    </linearGradient>
    <linearGradient id="linear-gradient-2" x1="0.96" y1="0.052" x2="0.062" y2="0.94" gradientUnits="objectBoundingBox">
      <stop offset="0" stop-color="#13a792"/>
      <stop offset="1" stop-color="#edf1f2"/>
    </linearGradient>
    <linearGradient id="linear-gradient-3" x1="0.865" y1="0.5" x2="0.121" y2="0.5" xlink:href="#linear-gradient-2"/>
    <linearGradient id="linear-gradient-4" x1="0.923" y1="0.5" x2="-0.742" y2="0.5" gradientUnits="objectBoundingBox">
      <stop offset="0" stop-color="#1e0236"/>
      <stop offset="1" stop-color="#edf1f2"/>
    </linearGradient>
    <linearGradient id="linear-gradient-5" x1="0.847" y1="0.799" x2="-0.045" y2="-0.035" xlink:href="#linear-gradient-4"/>
  </defs>
  <g id="Top_Section" data-name="Top Section" transform="translate(-161 -15.432)">
    <g id="Group_1134" data-name="Group 1134" transform="translate(161 15.432)">
      <g id="Group_1133" data-name="Group 1133" transform="translate(0 0)">
        <g id="NFR_" data-name="NFR " transform="translate(237.667 0.939)">
          <g id="poweredbyAdvana_wht" transform="translate(8.029 8.862)">
            <path id="Powered_by" data-name="Powered by" d="M2.132,3.549a1.744,1.744,0,0,1,1.251.388,1.455,1.455,0,0,1,.4,1.1,1.856,1.856,0,0,1-.171.8,1.286,1.286,0,0,1-.549.575,2.023,2.023,0,0,1-1,.214H1.7v1.7H.72V3.549Zm-.06.809H1.7V5.816h.274a.947.947,0,0,0,.609-.177A.7.7,0,0,0,2.8,5.06Q2.8,4.358,2.071,4.358ZM8.52,5.93a3.453,3.453,0,0,1-.224,1.3,1.824,1.824,0,0,1-.679.86,2.04,2.04,0,0,1-1.157.3A2.039,2.039,0,0,1,5.3,8.084a1.836,1.836,0,0,1-.682-.863,3.453,3.453,0,0,1-.224-1.3,2.84,2.84,0,0,1,.512-1.8,1.863,1.863,0,0,1,1.562-.652,2.057,2.057,0,0,1,1.157.3,1.786,1.786,0,0,1,.676.853A3.493,3.493,0,0,1,8.52,5.93Zm-3.1,0a2.378,2.378,0,0,0,.251,1.2.853.853,0,0,0,.793.425.848.848,0,0,0,.793-.418A2.426,2.426,0,0,0,7.5,5.93a2.449,2.449,0,0,0-.244-1.208A.838.838,0,0,0,6.467,4.3a.858.858,0,0,0-.8.428A2.4,2.4,0,0,0,5.416,5.93Zm9.406-2.382L13.7,8.325H12.594L12.019,5.9q-.02-.12-.06-.328t-.08-.428q-.04-.221-.054-.381-.013.134-.05.351t-.08.435l-.07.351-.569,2.422H9.945L8.828,3.549h.963l.542,2.535q.033.167.077.4t.08.465q.037.234.057.408.02-.187.06-.421t.08-.452q.04-.217.074-.351l.622-2.582h.89l.6,2.582q.033.134.077.355t.08.455q.037.234.057.415.02-.181.057-.408t.08-.455q.043-.227.077-.408l.549-2.535Zm3.071,4.777H15.364V3.549h2.529v.809H16.341V5.435h1.445v.816H16.341V7.5h1.552Zm2.181-4.777a2.137,2.137,0,0,1,1.348.351,1.277,1.277,0,0,1,.438,1.06,1.271,1.271,0,0,1-.234.786,1.7,1.7,0,0,1-.582.492l1.251,2.087H21.211l-1-1.846h-.448V8.325h-.977V3.549Zm-.047.809h-.268V5.689h.288a.932.932,0,0,0,.626-.174A.65.65,0,0,0,20.87,5a.566.566,0,0,0-.207-.492A1.086,1.086,0,0,0,20.027,4.358Zm5.338,3.967H22.837V3.549h2.529v.809H23.813V5.435h1.445v.816H23.813V7.5h1.552Zm4.509-2.448A2.492,2.492,0,0,1,29.259,7.7a2.328,2.328,0,0,1-1.733.622H26.255V3.549h1.391a2.208,2.208,0,0,1,1.629.6A2.339,2.339,0,0,1,29.874,5.877Zm-1.01.033a1.844,1.844,0,0,0-.3-1.171,1.075,1.075,0,0,0-.886-.375h-.442V7.5h.348a1.16,1.16,0,0,0,.97-.4A1.9,1.9,0,0,0,28.864,5.91ZM32.3,3.549h1.4a2.532,2.532,0,0,1,1.318.278,1,1,0,0,1,.448.92,1.231,1.231,0,0,1-.187.692.783.783,0,0,1-.515.351v.033a1.086,1.086,0,0,1,.589.341,1.159,1.159,0,0,1,.221.776,1.26,1.26,0,0,1-.435,1.017,1.786,1.786,0,0,1-1.191.368H32.3Zm.977,1.907h.5a.8.8,0,0,0,.539-.144.556.556,0,0,0,.157-.431.457.457,0,0,0-.181-.4.973.973,0,0,0-.555-.127h-.462Zm0,.776V7.516h.575a.725.725,0,0,0,.552-.177.7.7,0,0,0,.164-.492A.6.6,0,0,0,34.4,6.4a.812.812,0,0,0-.579-.167Zm4.536-.722.863-1.96h1.037L38.3,6.472V8.325h-.97V6.505L35.908,3.549h1.044Z" transform="translate(-0.428 -3.475)" fill="#000"/>
            <g id="Group_101" data-name="Group 101" transform="translate(0 7.738)">
              <g id="Group_72" data-name="Group 72" transform="translate(23.37 1.184)">
                <path id="Fill_1" data-name="Fill 1" d="M4.715,15.742H0L6.587,0H11.3l6.366,15.741h-4.89l-.9-2.515H5.64l-.925,2.515Zm4.1-11.071L6.918,9.813h3.745Z" transform="translate(0 0)" fill="#000"/>
                <path id="Fill_2" data-name="Fill 2" d="M6.591,15.633H0V0H6.745a9.37,9.37,0,0,1,4.339.97,7.058,7.058,0,0,1,2.911,2.743,8.026,8.026,0,0,1,1.032,4.093,7.95,7.95,0,0,1-1.054,4.1,7.125,7.125,0,0,1-2.966,2.754A9.666,9.666,0,0,1,6.591,15.633ZM4.57,3.657V12H6.876A3.17,3.17,0,0,0,9.4,10.861a4.514,4.514,0,0,0,.967-3.011A4.416,4.416,0,0,0,9.337,4.817,3.437,3.437,0,0,0,6.656,3.657Z" transform="translate(18.709 0.001)" fill="#000"/>
                <path id="Fill_4" data-name="Fill 4" d="M0,0H4.877L8.392,10.816,11.907,0h4.68L10.633,15.634H5.888Z" transform="translate(32.913 0.001)" fill="#000"/>
                <path id="Fill_6" data-name="Fill 6" d="M4.7,15.634H0L6.569,0h4.7l6.348,15.632H12.742l-.9-2.5H5.623l-.922,2.5Zm4.086-11L6.9,9.746h3.735Z" transform="translate(45.732 0.001)" fill="#000"/>
                <path id="Fill_8" data-name="Fill 8" d="M10.435,0h4.174V15.634H10.721L4.2,6.936v8.7H0V0H3.91l6.525,8.72Z" transform="translate(64.471 0.001)" fill="#000"/>
                <path id="Fill_10" data-name="Fill 10" d="M4.7,15.634H0L6.569,0h4.7l6.348,15.632H12.742l-.9-2.5H5.624l-.923,2.5Zm4.086-11L6.9,9.746h3.735Z" transform="translate(80.201 0.001)" fill="#000"/>
              </g>
              <g id="Group_92" data-name="Group 92">
                <path id="Fill_67" data-name="Fill 67" d="M17.469,8.746A8.734,8.734,0,1,1,8.735,0a8.74,8.74,0,0,1,8.734,8.746" transform="translate(1.704 0.853)" fill="rgba(223,230,238,0.91)"/>
                <path id="Fill_73" data-name="Fill 73" d="M5.956,11.236l.413.71-4.579,0L0,8.865,5.046.041,10.6,0l1.755,3.018-.37.666-4.606.061-4.2,7.488Z" transform="translate(0 5.546)" fill="#00a19b"/>
                <path id="Fill_75" data-name="Fill 75" d="M12.392,1.885l.415-.728,2.105,3.793-1.8,3.156L2.831,8.051,0,3.1,1.765.005,2.536,0,4.908,4.091l8.683-.028Z" transform="translate(5.965 9.386)" fill="#1e0236"/>
                <path id="Fill_77" data-name="Fill 77" d="M.831,3.322,0,3.32,1.97,0l3.6.008,5.077,8.821L7.816,13.652l-3.536-.008-.389-.657L6.219,8.974,1.869,1.56Z" transform="translate(6.391)" fill="#131e43"/>
                <path id="Fill_82" data-name="Fill 82" d="M0,4.685,2.7,0l3.26.008L3.31,4.693Z" transform="translate(11.078 8.959)" fill="url(#linear-gradient)" style="mix-blend-mode: soft-light;isolation: isolate"/>
                <path id="Fill_84" data-name="Fill 84" d="M0,8.857l1.694,3.088,4.7-8.959L4.763,0Z" transform="translate(0 5.546)" fill="url(#linear-gradient-2)" style="mix-blend-mode: soft-light;isolation: isolate"/>
                <path id="Fill_86" data-name="Fill 86" d="M7.243,2.986l-5.535,0L0,.038,5.5,0Z" transform="translate(5.539 5.546)" fill="url(#linear-gradient-3)" style="mix-blend-mode: soft-light;isolation: isolate"/>
                <path id="Fill_88" data-name="Fill 88" d="M10.153,2.986,11.93.037,1.746,0,0,2.935Z" transform="translate(8.947 14.505)" fill="url(#linear-gradient-4)" style="mix-blend-mode: soft-light;isolation: isolate"/>
                <path id="Fill_90" data-name="Fill 90" d="M1.635,0,4.261,4.681l-1.638,3L0,2.955Z" transform="translate(6.391 9.812)" fill="url(#linear-gradient-5)" style="mix-blend-mode: soft-light;isolation: isolate"/>
              </g>
            </g>
          </g>
          <g id="Copyright" transform="translate(1.097 0) rotate(90)">
            <rect id="Top_Divider" data-name="Top Divider" width="37.166" height="1.097" fill="#000"/>
          </g>
        </g>
        <path id="SQL_builder" data-name="SQL builder" d="M12.752,20.9a5.814,5.814,0,0,1-1.731,4.486,6.661,6.661,0,0,1-4.713,1.6A8.5,8.5,0,0,1-.238,24.03l2.4-3.462a7.51,7.51,0,0,0,1.959,1.491,4,4,0,0,0,1.756.505,1.482,1.482,0,0,0,1.15-.455,1.919,1.919,0,0,0,.417-1.339V13.239H1.43v-4.2H12.752Zm13-11.853a10.789,10.789,0,0,1,3.589.543,5.255,5.255,0,0,1,2.376,1.554,3.618,3.618,0,0,1,.834,2.376,3.755,3.755,0,0,1-.809,2.376,4.182,4.182,0,0,1-2.2,1.441,4.282,4.282,0,0,1,2.59,1.554,4.552,4.552,0,0,1,.973,2.919,4.188,4.188,0,0,1-.859,2.616,5.421,5.421,0,0,1-2.439,1.731,10.226,10.226,0,0,1-3.677.607H17.057V9.044Zm-.278,6.95a1.762,1.762,0,0,0,1.238-.417,1.451,1.451,0,0,0,.455-1.125,1.343,1.343,0,0,0-.455-1.074,1.835,1.835,0,0,0-1.238-.392H22.289v3.007Zm0,6.824a2.469,2.469,0,0,0,1.6-.43,1.476,1.476,0,0,0,.594-1.238A1.329,1.329,0,0,0,27.078,20a2.627,2.627,0,0,0-1.6-.392H22.289v3.21Zm20.05-14.1A10.273,10.273,0,0,1,50.464,9.9a8.816,8.816,0,0,1,3.462,3.273,8.935,8.935,0,0,1,1.251,4.688A9.115,9.115,0,0,1,53.927,22.6a8.849,8.849,0,0,1-3.462,3.311,10.794,10.794,0,0,1-9.894,0A8.872,8.872,0,0,1,37.12,22.6a9.115,9.115,0,0,1-1.251-4.739,8.935,8.935,0,0,1,1.251-4.688A8.838,8.838,0,0,1,40.57,9.9,10.252,10.252,0,0,1,45.523,8.715Zm.076,4.372a3.965,3.965,0,0,0-2.161.632,4.58,4.58,0,0,0-1.592,1.731,5.048,5.048,0,0,0-.594,2.439,5.121,5.121,0,0,0,.594,2.451A4.655,4.655,0,0,0,43.438,22.1a3.909,3.909,0,0,0,2.161.644,3.747,3.747,0,0,0,2.11-.644,4.46,4.46,0,0,0,1.529-1.744,5.382,5.382,0,0,0,.556-2.464,5.326,5.326,0,0,0-.556-2.439,4.4,4.4,0,0,0-1.516-1.731A3.781,3.781,0,0,0,45.6,13.087ZM67.267,8.715A10.273,10.273,0,0,1,72.208,9.9a8.816,8.816,0,0,1,3.462,3.273,8.935,8.935,0,0,1,1.251,4.688A9.115,9.115,0,0,1,75.67,22.6a8.849,8.849,0,0,1-3.462,3.311,10.794,10.794,0,0,1-9.894,0,8.872,8.872,0,0,1-3.45-3.311,9.115,9.115,0,0,1-1.251-4.739,8.935,8.935,0,0,1,1.251-4.688A8.838,8.838,0,0,1,62.313,9.9,10.253,10.253,0,0,1,67.267,8.715Zm.076,4.372a3.965,3.965,0,0,0-2.161.632A4.58,4.58,0,0,0,63.59,15.45,5.048,5.048,0,0,0,63,17.889a5.121,5.121,0,0,0,.594,2.451A4.655,4.655,0,0,0,65.182,22.1a3.909,3.909,0,0,0,2.161.644,3.747,3.747,0,0,0,2.11-.644,4.46,4.46,0,0,0,1.529-1.744,5.382,5.382,0,0,0,.556-2.464,5.326,5.326,0,0,0-.556-2.439,4.4,4.4,0,0,0-1.516-1.731A3.781,3.781,0,0,0,67.343,13.087ZM98.184,26.76H91.891l-4.145-6.52-1.971,2.173V26.76H80.519V9.044h5.257v7.1l5.939-7.1H97.78l-6.445,7.177Zm12.6-14.608a2.376,2.376,0,0,0-1.554.468,1.523,1.523,0,0,0-.569,1.238,1.4,1.4,0,0,0,.695,1.226,12.707,12.707,0,0,0,3.21,1.074,9.034,9.034,0,0,1,3.9,1.858,4.587,4.587,0,0,1,1.39,3.614,4.77,4.77,0,0,1-1.782,3.854,7.1,7.1,0,0,1-4.688,1.478,10.851,10.851,0,0,1-7.557-3.109l2.35-2.881q2.856,2.5,5.282,2.5a2.773,2.773,0,0,0,1.706-.468,1.5,1.5,0,0,0,.619-1.264,1.473,1.473,0,0,0-.657-1.264,8.572,8.572,0,0,0-2.6-.948,11.32,11.32,0,0,1-4.511-1.908,4.506,4.506,0,0,1-1.428-3.69,4.574,4.574,0,0,1,1.807-3.879,7.272,7.272,0,0,1,4.511-1.365,10.85,10.85,0,0,1,3.538.607,9.475,9.475,0,0,1,3.083,1.719l-2,2.881A7.778,7.778,0,0,0,110.788,12.152Zm22.2-3.058v3.513h-8.795v3.639h7.91v3.361h-7.91v3.665h9.073V26.76H120.249V9.094Zm15.4,17.666-1.643-3.816h-7.4L137.7,26.76h-4.2l7.632-17.666h3.816l7.632,17.666Zm-5.333-12.409-2.224,5.13h4.423Zm24.927.607q0,4.246-3.361,5.484l4.473,6.318H164.24l-3.917-5.636h-2.729V26.76H153.65V9.094h6.7q4.119,0,5.876,1.39A5.362,5.362,0,0,1,167.98,14.958Zm-7.506,2.755a4.239,4.239,0,0,0,2.755-.657,2.669,2.669,0,0,0,.733-2.085,2.234,2.234,0,0,0-.758-1.959,4.853,4.853,0,0,0-2.654-.531h-2.957v5.231Zm18.685,5.56a5.818,5.818,0,0,0,4.751-2.3l2.527,2.6a9.534,9.534,0,0,1-13.811.809,8.711,8.711,0,0,1-2.641-6.508,8.792,8.792,0,0,1,2.692-6.558A9.066,9.066,0,0,1,179.26,8.69,9.331,9.331,0,0,1,186.538,12l-2.451,2.78a5.744,5.744,0,0,0-4.65-2.325,5.42,5.42,0,0,0-3.8,1.453,5.063,5.063,0,0,0-1.58,3.917,5.346,5.346,0,0,0,1.491,3.955A4.922,4.922,0,0,0,179.159,23.272ZM199.537,9.094h3.943V26.76h-3.943V19.81h-7.026v6.95h-3.943V9.094h3.943v7.38h7.026Z" transform="translate(26.238 7.552)" fill="#000"/>
        <g id="Group_9" data-name="Group 9" transform="translate(26.808 5.988)">
          <path id="GAMECHANGER" d="M4.894,13.169H8.117v4.119a8.868,8.868,0,0,1-2.884.459,3.609,3.609,0,0,1-2.7-1.011,4.141,4.141,0,0,1-.989-3.01,4.5,4.5,0,0,1,.47-2.119A3.277,3.277,0,0,1,3.392,10.22a4.658,4.658,0,0,1,2.234-.492,6.321,6.321,0,0,1,1.295.131,5.3,5.3,0,0,1,1.109.35l-.6,1.475a4.35,4.35,0,0,0-.836-.3,3.93,3.93,0,0,0-.967-.115,2.118,2.118,0,0,0-1.2.322,1.956,1.956,0,0,0-.727.885,3.241,3.241,0,0,0-.24,1.284,3.056,3.056,0,0,0,.464,1.786,1.647,1.647,0,0,0,1.448.661,4.182,4.182,0,0,0,.53-.033q.257-.033.432-.066V14.666H4.894Zm9.723,4.468-.481-1.672h-2.7l-.481,1.672H8.925L11.58,9.8h2.382l2.688,7.833Zm-.9-3.223-.459-1.562-.147-.53q-.093-.333-.186-.683t-.147-.59q-.055.24-.142.6t-.175.688q-.087.333-.142.519l-.459,1.562Zm7.189,3.223-1.748-5.889h-.044q.022.219.044.628t.044.879q.022.47.022.863v3.518H17.567v-7.8h2.513l1.737,5.768h.044l1.792-5.768h2.5v7.8H24.428V14.076q0-.371.016-.825t.033-.863q.016-.41.027-.628H24.46l-1.8,5.878Zm11.635,0H27.989v-7.8h4.556v1.508h-2.7v1.5h2.5v1.508h-2.5v1.759h2.7Zm4.894-6.369a1.525,1.525,0,0,0-1.327.661,3.142,3.142,0,0,0-.464,1.83,3.112,3.112,0,0,0,.448,1.819,1.6,1.6,0,0,0,1.4.628,3.83,3.83,0,0,0,.972-.126q.481-.126,1.016-.322v1.573a5,5,0,0,1-1.038.317,6.17,6.17,0,0,1-1.136.1,3.717,3.717,0,0,1-2.032-.5,2.991,2.991,0,0,1-1.164-1.4,5.38,5.38,0,0,1-.377-2.1,4.8,4.8,0,0,1,.432-2.087,3.3,3.3,0,0,1,1.262-1.42,3.771,3.771,0,0,1,2.021-.513,5.385,5.385,0,0,1,2.338.546l-.579,1.486a7.286,7.286,0,0,0-.874-.35A2.881,2.881,0,0,0,37.439,11.268ZM47.6,17.638H45.742V14.36h-2.8v3.278H41.077v-7.8h1.868V12.82h2.8V9.837H47.6Zm6.609,0-.481-1.672h-2.7l-.481,1.672H48.517L51.171,9.8h2.382l2.688,7.833Zm-.9-3.223-.459-1.562-.147-.53q-.093-.333-.186-.683t-.147-.59q-.055.24-.142.6t-.175.688q-.087.333-.142.519l-.459,1.562Zm11,3.223h-2.4l-3.146-5.714H58.72q.011.208.027.557t.038.759q.022.41.033.792v3.605H57.158v-7.8h2.393l3.135,5.648h.033q-.011-.2-.027-.535t-.033-.737q-.016-.4-.016-.759V9.837h1.672Zm4.872-4.468h3.223v4.119a8.868,8.868,0,0,1-2.884.459,3.609,3.609,0,0,1-2.7-1.011,4.14,4.14,0,0,1-.989-3.01,4.5,4.5,0,0,1,.47-2.119,3.277,3.277,0,0,1,1.382-1.387,4.658,4.658,0,0,1,2.234-.492,6.321,6.321,0,0,1,1.295.131,5.3,5.3,0,0,1,1.109.35l-.6,1.475a4.351,4.351,0,0,0-.836-.3,3.931,3.931,0,0,0-.967-.115,2.118,2.118,0,0,0-1.2.322,1.956,1.956,0,0,0-.727.885,3.241,3.241,0,0,0-.24,1.284,3.055,3.055,0,0,0,.464,1.786,1.647,1.647,0,0,0,1.448.661,4.182,4.182,0,0,0,.53-.033q.257-.033.432-.066V14.666H69.186Zm9.5,4.468H74.135v-7.8h4.556v1.508h-2.7v1.5h2.5v1.508h-2.5v1.759h2.7Zm3.911-7.8q3.146,0,3.146,2.327a1.976,1.976,0,0,1-.4,1.267,2.986,2.986,0,0,1-1,.808l2.283,3.4H84.547L82.788,14.71h-.732v2.928H80.2v-7.8ZM82.526,11.3h-.47v1.956h.47a1.678,1.678,0,0,0,1-.246.906.906,0,0,0,.333-.781.806.806,0,0,0-.317-.7A1.759,1.759,0,0,0,82.526,11.3Z" transform="translate(-1.54 -9.728)" fill="#000"/>
        </g>
        <g id="logo_mark" data-name="logo mark" transform="translate(0 0)">
          <path id="Fill_1-2" data-name="Fill 1" d="M6.652,0V27.371H0V7.679Z" transform="translate(0.512 11.151)" fill="#fff"/>
          <path id="Fill_2-2" data-name="Fill 2" d="M7.163,29.4H0V8.94L7.163,0ZM6.169,2.864.994,9.323v19.03H6.169Z" transform="translate(0 10.137)" fill="#131e43"/>
          <path id="Fill_3" data-name="Fill 3" d="M.123,0,11.257,10.537v20.5L5.374,35.655v1.853H0Z" transform="translate(7.164 1.014)" fill="#fff"/>
          <path id="Fill_4-2" data-name="Fill 4" d="M0,33.961H4.376l-.06-1.513.83-.541L9.21,28.739V8.1L0,0Z" transform="translate(8.187 4.562)" fill="#e9691d"/>
          <path id="Fill_5" data-name="Fill 5" d="M6.663,39.536H0V0L12.792,11.677V32.767L6.663,37.489v2.047ZM1.065,2.4V38.488H5.6V36.405l.51.18,5.618-4.329V12.135L1.065,2.4Z" transform="translate(6.652 0)" fill="#131e43"/>
          <path id="Fill_6-2" data-name="Fill 6" d="M0,28.385V8.741L11.769,0V28.385Z" transform="translate(0.512 10.644)" fill="#fff"/>
          <path id="Fill_7" data-name="Fill 7" d="M9.21,25.851H0V6.863L9.21,0Z" transform="translate(2.047 12.672)" fill="#386f94"/>
          <path id="Fill_8-2" data-name="Fill 8" d="M13.3,29.906H0V9.5L13.3,0ZM12.236,2.052h0L1.068,10.023V28.866H12.236V2.052Z" transform="translate(0 9.124)" fill="#131e43"/>
        </g>
      </g>
    </g>
  </g>
</svg>
