<svg id="Group_1297" data-name="Group 1297" xmlns="http://www.w3.org/2000/svg" xmlns:xlink="http://www.w3.org/1999/xlink" width="201.961" height="247.858" viewBox="0 0 201.961 247.858">
  <defs>
    <clipPath id="clip-path">
      <rect id="Rectangle_230" data-name="Rectangle 230" width="201.961" height="247.858" fill="none"/>
    </clipPath>
  </defs>
  <path id="Path_1799" data-name="Path 1799" d="M11.937,0V247.858H201.961V37.179L164.783,0Z" fill="#fff"/>
  <path id="Path_1800" data-name="Path 1800" d="M168.914,14.1l18.944,18.944H168.914ZM20.2,8.262H160.652V41.31H193.7V239.6H20.2ZM11.937,0V247.858H201.961V35.468L166.493,0Z" fill="#000f1d"/>
  <g id="Group_1296" data-name="Group 1296">
    <g id="Group_1295" data-name="Group 1295" clip-path="url(#clip-path)">
      <path id="Path_1801" data-name="Path 1801" d="M155.248,63.032H96.528V49.19L0,64.091V194.678L96.528,211.3V190.8h58.72c3.9,0,7.068-2.844,7.068-6.353V69.385c0-3.509-3.164-6.353-7.068-6.353m.928,122.47H100.067a3.77,3.77,0,0,1-3.77-3.737l-.031-3.412a3.77,3.77,0,0,1,3.77-3.8h4.234a6.376,6.376,0,1,0,0-12.753H99.856a3.771,3.771,0,0,1,0-7.541h4.414a6.377,6.377,0,0,0,6.377-6.376h0a6.377,6.377,0,0,0-6.377-6.376H99.675a3.771,3.771,0,0,1,0-7.541h4.595a6.376,6.376,0,1,0,0-12.753H99.594a3.771,3.771,0,1,1,0-7.541h4.676a6.376,6.376,0,1,0,0-12.753H99.594a3.771,3.771,0,1,1,0-7.541h4.676a6.376,6.376,0,1,0,0-12.753H99.594a3.77,3.77,0,0,1-3.771-3.77V72.8a3.771,3.771,0,0,1,3.771-3.771h56.582Z" fill="#35b2a5" fill-rule="evenodd"/>
      <path id="Path_1802" data-name="Path 1802" d="M125.141,93.374h12.306a6.376,6.376,0,0,0,0-12.753H125.141a6.376,6.376,0,0,0,0,12.753" fill="#35b2a5" fill-rule="evenodd"/>
      <path id="Path_1803" data-name="Path 1803" d="M125.141,113.667h12.306a6.376,6.376,0,0,0,0-12.753H125.141a6.376,6.376,0,0,0,0,12.753" fill="#35b2a5" fill-rule="evenodd"/>
      <path id="Path_1804" data-name="Path 1804" d="M125.141,133.961h12.306a6.376,6.376,0,0,0,0-12.753H125.141a6.376,6.376,0,0,0,0,12.753" fill="#35b2a5" fill-rule="evenodd"/>
      <path id="Path_1805" data-name="Path 1805" d="M125.141,154.255h12.306a6.377,6.377,0,0,0,0-12.753H125.141a6.377,6.377,0,0,0,0,12.753" fill="#35b2a5" fill-rule="evenodd"/>
      <path id="Path_1806" data-name="Path 1806" d="M125.141,174.549h12.306a6.376,6.376,0,0,0,0-12.753H125.141a6.376,6.376,0,0,0,0,12.753" fill="#35b2a5" fill-rule="evenodd"/>
      <path id="Path_1807" data-name="Path 1807" d="M25.2,99.363l12.44-.711,7.819,21.5L54.7,97.763l12.439-.71-15.1,30.527,15.1,30.6L53.99,157.3l-8.885-23.328-8.886,22.439-12.084-1.066,14.039-27.033Z" fill="#fff" fill-rule="evenodd"/>
    </g>
  </g>
</svg>
