<?xml version="1.0" encoding="UTF-8"?>
<svg width="25px" height="26px" viewBox="0 0 25 26" version="1.1" xmlns="http://www.w3.org/2000/svg" xmlns:xlink="http://www.w3.org/1999/xlink">
    <title>export icon</title>
    <g id="Advana-Gamechanger" stroke="none" stroke-width="1" fill="none" fill-rule="evenodd">
        <g id="Advana-Gamechanger-Doc-Export" transform="translate(-1826.000000, -162.000000)" fill="#FFFFFF">
            <g id="Top-Level" transform="translate(51.000000, 30.000000)">
                <g id="Export-Button" transform="translate(1761.000000, 121.000000)">
                    <g id="export-icon" transform="translate(14.000000, 11.000000)">
                        <path d="M20.6237931,12.0518357 C19.6451927,12.0518357 18.8489452,12.8480832 18.8489452,13.8266836 L18.8489452,21.4503144 L3.54965517,21.4503144 L3.54965517,6.15102434 L11.148641,6.15102434 C12.1273428,6.15102434 12.9234888,5.3548783 12.9234888,4.37617647 C12.9234888,3.39757606 12.1273428,2.6013286 11.148641,2.6013286 L1.72409736,2.6013286 C0.773387424,2.6013286 -4.05679516e-05,3.37475659 -4.05679516e-05,4.32546653 L-4.05679516e-05,22.3630933 C-4.05679516e-05,23.8171501 1.18292089,25.0000101 2.63687627,25.0000101 L19.7617241,25.0000101 C21.2157809,25.0000101 22.398641,23.8171501 22.398641,22.3630933 L22.398641,13.8266836 C22.398641,12.8480832 21.6023935,12.0518357 20.6237931,12.0518357" id="Fill-1"></path>
                        <path d="M24.3655276,0.63417439 C23.9414508,0.210288843 23.356715,-0.0203286081 22.7552809,0.00140911225 L15.5870797,0.262261757 C14.7679753,0.292101718 14.1253389,0.982768379 14.1545856,1.8018852 C14.1687149,2.19929026 14.3367845,2.56725058 14.6279667,2.83818162 C14.9192478,3.10911266 15.2995533,3.2499138 15.6956679,3.23558667 L19.3099044,3.103283 L11.7421304,10.6727525 C11.3969011,11.017987 11.2068966,11.4770481 11.2068966,11.9653564 C11.2068966,12.4536646 11.3971975,12.9127257 11.7425256,13.2579603 C12.0877549,13.603096 12.5469079,13.7931034 13.0350112,13.7931034 C13.5234108,13.7931034 13.9823662,13.6028984 14.3274967,13.257565 L21.897148,5.68641583 L21.7649451,9.30337489 C21.7503218,9.70077994 21.891516,10.0800043 22.1623442,10.371191 C22.4331723,10.6622788 22.8013247,10.8304497 23.1989213,10.8446781 C24.0172353,10.8684908 24.7084843,10.2307851 24.7381262,9.41186587 L24.9985797,2.24454424 C25.0204159,1.645176 24.7896043,1.05825755 24.3655276,0.63417439" id="Fill-4"></path>
                    </g>
                </g>
            </g>
        </g>
    </g>
</svg>