<?xml version="1.0" encoding="utf-8"?>
<!-- Generator: Adobe Illustrator 23.0.1, SVG Export Plug-In . SVG Version: 6.00 Build 0)  -->
<svg version="1.1" id="Layer_1" xmlns="http://www.w3.org/2000/svg" xmlns:xlink="http://www.w3.org/1999/xlink" x="0px" y="0px"
	 viewBox="0 0 120.56 126.53" style="enable-background:new 0 0 120.56 126.53;" xml:space="preserve">
<style type="text/css">
	.st0{fill:#386F94;}
	.st1{fill:#3EC1C8;}
	.st2{fill:#F5A620;}
	.st3{fill:#C0D351;}
	.st4{fill:#F26755;}
	.st5{fill:#387094;}
	.st6{fill:#0E9ED9;}
</style>
<g>
	<path class="st0" d="M106.62,38.33H13.94c-1.1,0-2-0.9-2-2s0.9-2,2-2h92.69c1.1,0,2,0.9,2,2S107.73,38.33,106.62,38.33z"/>
	<circle class="st0" cx="25.57" cy="27.61" r="2.85"/>
	<circle class="st0" cx="33.47" cy="27.61" r="2.85"/>
	<circle class="st0" cx="41.65" cy="27.61" r="2.85"/>
	<path class="st0" d="M74.58,90.79h-8.53c-0.66,0-1.2,0.54-1.2,1.2v18.31c0,0.66,0.54,1.2,1.2,1.2h8.53c0.66,0,1.2-0.54,1.2-1.2
		V91.99C75.78,91.32,75.24,90.79,74.58,90.79z M73.38,109.1h-6.13V93.18h6.13V109.1z"/>
	<path class="st0" d="M89.3,82.01h-8.53c-0.66,0-1.2,0.54-1.2,1.2v27.09c0,0.66,0.54,1.2,1.2,1.2h8.53c0.66,0,1.2-0.54,1.2-1.2
		V83.21C90.5,82.55,89.96,82.01,89.3,82.01z M88.1,109.1h-6.13V84.41h6.13V109.1z"/>
	<rect x="81.97" y="84.41" class="st1" width="6.13" height="24.69"/>
	<rect x="67.25" y="93.18" class="st2" width="6.13" height="15.92"/>
	<path class="st0" d="M104.66,15.03H15.9c-2.19,0-3.97,1.78-3.97,3.97v74.89c0,2.19,1.78,3.97,3.97,3.97h13.27l0-0.03
		c0.97-0.13,1.73-0.95,1.73-1.96c0-1.1-0.89-1.99-1.99-1.99c-0.08,0-0.16,0.01-0.24,0.02l0-0.02l-12.73,0L15.9,19.03L104.62,19
		v74.86l-9.07,0c-0.02,0-0.04-0.01-0.06-0.01c-0.02,0-0.04,0.01-0.06,0.01h-0.08l0,0.01c-1.04,0.07-1.87,0.93-1.87,1.99
		c0,1.11,0.9,2,2,2c0.03,0,0.05-0.01,0.08-0.01l0,0.01h9.08c2.19,0,3.97-1.78,3.97-3.97V19C108.62,16.81,106.84,15.03,104.66,15.03z
		"/>
	<path class="st3" d="M35.24,74.53c0,6.33,2.41,12.11,6.36,16.46l-3.27,3.27c-4.79-5.19-7.72-12.12-7.72-19.73
		c0-15.67,12.43-28.48,27.94-29.11v4.62C45.6,50.67,35.24,61.41,35.24,74.53z"/>
	<path class="st0" d="M92.1,74.53c0-17.83-14.51-32.34-32.34-32.34S27.42,56.7,27.42,74.53s14.51,32.34,32.34,32.34
		c0.88,0,1.6-0.72,1.6-1.6c0-0.88-0.72-1.6-1.6-1.6c-7.6,0-14.53-2.93-19.73-7.72l3.27-3.27c4.35,3.95,10.13,6.36,16.46,6.36
		c0.88,0,1.6-0.72,1.6-1.6c0-0.88-0.72-1.6-1.6-1.6c-11.76,0-21.32-9.57-21.32-21.32S48,53.21,59.76,53.21
		c11.76,0,21.32,9.57,21.32,21.32c0,0.06,0.01,0.13,0.02,0.19c0,0.02-0.01,0.03-0.01,0.05c0,0.83,0.67,1.5,1.5,1.5h7.9
		c0.65,0,1.2-0.42,1.41-1C92.03,75.05,92.1,74.8,92.1,74.53z M58.56,50.04C45.6,50.67,35.24,61.41,35.24,74.53
		c0,6.33,2.41,12.11,6.36,16.46l-3.27,3.27c-4.79-5.19-7.72-12.12-7.72-19.73c0-15.67,12.43-28.48,27.94-29.11V50.04z M60.96,50.04
		v-4.62c15.1,0.61,27.27,12.76,27.91,27.85h-4.62C83.61,60.73,73.51,50.65,60.96,50.04z"/>
	<path class="st4" d="M60.96,50.04v-4.62c15.1,0.61,27.27,12.76,27.91,27.85h-4.62C83.61,60.73,73.51,50.65,60.96,50.04z"/>
	<g>
		<path class="st5" d="M59.77,61.84c3.03,0,6.07,1.07,8.49,3.25l0,0c5.2,4.68,5.62,12.73,0.94,17.93c-1.84,2.05-4.25,3.41-6.9,3.95
			c-0.61,0.12-1.24,0.2-1.87,0.24c-0.23,0.01-0.45,0.02-0.68,0.02c-3.14,0-6.13-1.14-8.48-3.26c-2.52-2.27-4.01-5.38-4.18-8.77
			c-0.18-3.39,0.97-6.64,3.24-9.16C52.83,63.26,56.29,61.84,59.77,61.84 M59.77,59.95c-4.13,0-8.09,1.76-10.84,4.82
			C46.32,67.67,45,71.4,45.2,75.29c0.2,3.89,1.91,7.47,4.8,10.07c2.68,2.42,6.14,3.75,9.74,3.75c0.26,0,0.52-0.01,0.78-0.02
			c0.73-0.04,1.45-0.13,2.15-0.27c3.07-0.62,5.81-2.19,7.93-4.53c5.23-5.82,4.91-14.73-0.62-20.16l0-0.02l-0.46-0.41
			C66.84,61.28,63.38,59.95,59.77,59.95L59.77,59.95z"/>
		<g>
			<path class="st6" d="M56.07,77.4c0.03,0,0.05,0,0.08,0c-0.01,0-0.01,0-0.02,0C56.11,77.4,56.09,77.4,56.07,77.4z"/>
			<path class="st6" d="M57.85,70.65c0.09-0.12,0.21-0.22,0.36-0.32c0.1-0.07,0.22-0.13,0.34-0.18c-0.12,0.05-0.24,0.11-0.34,0.18
				C58.06,70.43,57.94,70.54,57.85,70.65z"/>
			<path class="st6" d="M60.76,80.62c0.18-0.02,0.36-0.05,0.52-0.09C61.12,80.57,60.94,80.6,60.76,80.62L60.76,80.62z"/>
			<path class="st6" d="M63.63,79.14c-0.14,0.18-0.31,0.35-0.49,0.51c-0.15,0.13-0.32,0.25-0.5,0.35c0.18-0.1,0.34-0.22,0.5-0.35
				C63.33,79.5,63.49,79.33,63.63,79.14z"/>
			<path class="st6" d="M59.17,80.65L59.17,80.65c-0.15-0.02-0.31-0.04-0.46-0.07C58.86,80.62,59.01,80.64,59.17,80.65z"/>
			<path class="st6" d="M63.87,69.49c-0.02-0.14-0.1-0.26-0.22-0.34C63.77,69.23,63.85,69.36,63.87,69.49z"/>
			<path class="st3" d="M68.26,65.1L68.26,65.1c-5.2-4.68-13.25-4.26-17.93,0.94c-2.27,2.52-3.42,5.77-3.24,9.16
				c0.18,3.39,1.66,6.5,4.18,8.77c2.52,2.27,5.77,3.42,9.16,3.24c0.64-0.03,1.26-0.11,1.87-0.24c2.65-0.53,5.05-1.9,6.9-3.95
				C73.88,77.82,73.46,69.78,68.26,65.1z M67.55,81.54c-1.52,1.69-3.5,2.81-5.69,3.26c-0.51,0.1-1.02,0.17-1.54,0.19
				c-2.79,0.15-5.48-0.8-7.55-2.68c-2.08-1.87-3.3-4.44-3.45-7.23c-0.15-2.79,0.8-5.48,2.68-7.55c3.86-4.29,10.5-4.64,14.79-0.78
				l0,0C71.06,70.61,71.41,77.25,67.55,81.54z"/>
			<path class="st6" d="M63.19,70.69c-0.06,0.02-0.13,0.02-0.19,0.01c0.02,0,0.04,0.01,0.05,0.01C63.1,70.71,63.15,70.7,63.19,70.69
				z"/>
			<path class="st6" d="M62.68,74.36c-0.13-0.08-0.26-0.15-0.4-0.21c-0.19-0.08-0.39-0.17-0.62-0.26c0.23,0.09,0.44,0.17,0.62,0.26
				C62.42,74.21,62.55,74.28,62.68,74.36z"/>
			<path class="st5" d="M66.77,66.75L66.77,66.75c-4.29-3.86-10.93-3.52-14.79,0.77c-1.87,2.08-2.82,4.76-2.68,7.55
				c0.15,2.79,1.37,5.36,3.45,7.23c2.08,1.87,4.76,2.82,7.55,2.68c0.52-0.03,1.04-0.09,1.54-0.19c2.19-0.44,4.17-1.57,5.69-3.26
				C71.41,77.25,71.06,70.61,66.77,66.75z M59.17,80.65c-0.15-0.02-0.31-0.04-0.46-0.07C58.86,80.62,59.01,80.64,59.17,80.65
				L59.17,80.65z M59.83,78.06c-0.48,0-0.98-0.1-1.48-0.31c-0.48-0.2-0.88-0.47-1.19-0.8c-0.27-0.29-0.64-0.45-1.03-0.45
				c-0.05,0-0.11,0-0.16,0.01c-0.43,0.05-0.83,0.3-1.06,0.68l-0.36,0.6c-0.33,0.56-0.24,1.26,0.22,1.72
				c0.61,0.61,1.35,1.11,2.21,1.48c0.42,0.18,0.85,0.32,1.29,0.42v0.72c0,0.22,0.06,0.43,0.15,0.62c-1.53-0.25-3-0.91-4.23-2.02
				c-1.66-1.49-2.63-3.54-2.75-5.76c-0.12-2.22,0.64-4.36,2.13-6.02c1.24-1.38,2.85-2.25,4.54-2.59c0.1-0.02,0.21-0.03,0.31-0.04
				c-0.09,0.19-0.15,0.39-0.15,0.62v0.54c-0.73,0.19-1.36,0.51-1.88,0.94c-0.92,0.76-1.41,1.78-1.41,2.96
				c0,0.98,0.26,1.81,0.77,2.47c0.46,0.59,1.03,1.05,1.7,1.35c0.52,0.24,1.18,0.48,2.04,0.74c0.65,0.19,1.15,0.37,1.5,0.52
				c0.22,0.1,0.4,0.23,0.54,0.4c0.05,0.06,0.08,0.19,0.08,0.37c0,0.2-0.04,0.32-0.26,0.48C61.03,77.94,60.5,78.06,59.83,78.06z
				 M56.14,77.4c-0.03,0-0.05,0-0.08,0c0.02,0,0.04,0,0.06,0C56.13,77.4,56.14,77.4,56.14,77.4z M58.55,70.16
				c-0.12,0.05-0.24,0.11-0.34,0.18c-0.15,0.1-0.27,0.2-0.36,0.32c0.09-0.12,0.21-0.22,0.36-0.32
				C58.31,70.27,58.43,70.21,58.55,70.16z M60.76,80.62L60.76,80.62c0.18-0.02,0.36-0.05,0.52-0.09c0.17-0.04,0.33-0.08,0.49-0.13
				c0.31-0.1,0.6-0.23,0.87-0.39c0.18-0.1,0.34-0.22,0.5-0.35c0.19-0.16,0.35-0.33,0.49-0.51c-0.14,0.18-0.31,0.35-0.49,0.51
				c-0.15,0.13-0.32,0.25-0.5,0.35c-0.26,0.16-0.55,0.29-0.87,0.39c-0.16,0.05-0.32,0.1-0.49,0.13
				C61.12,80.57,60.94,80.6,60.76,80.62z M61.66,73.89c0.23,0.09,0.44,0.17,0.62,0.26c0.14,0.06,0.27,0.13,0.4,0.21
				c-0.13-0.08-0.26-0.15-0.4-0.21C62.09,74.06,61.89,73.98,61.66,73.89z M65.96,80.11c-1.21,1.34-2.76,2.2-4.41,2.55
				c0.07-0.16,0.11-0.34,0.11-0.53v-0.77c0.8-0.2,1.48-0.54,2.05-1.02c0.95-0.8,1.46-1.88,1.46-3.13c0-0.99-0.26-1.83-0.78-2.5
				c-0.47-0.61-1.05-1.07-1.74-1.38c-0.53-0.24-1.22-0.49-2.04-0.73c-0.63-0.2-1.13-0.38-1.49-0.53c-0.21-0.09-0.38-0.21-0.52-0.38
				c-0.06-0.07-0.08-0.23-0.08-0.35c0-0.08,0-0.13,0.18-0.25c0.3-0.19,0.79-0.31,1.34-0.31c0.4,0,0.82,0.06,1.23,0.17
				c0.38,0.1,0.72,0.25,1,0.43c0.23,0.15,0.5,0.23,0.78,0.23c0.12,0,0.24-0.01,0.35-0.04c0.4-0.11,0.73-0.37,0.91-0.73l0.31-0.62
				c0.32-0.64,0.11-1.42-0.49-1.81c-0.52-0.34-1.13-0.62-1.81-0.83c-0.22-0.07-0.45-0.12-0.67-0.17v-0.47
				c0-0.19-0.04-0.37-0.11-0.53c1.37,0.3,2.68,0.93,3.79,1.93l0,0C68.76,71.41,69.04,76.69,65.96,80.11z M63,70.7
				c0.06,0.01,0.13,0.01,0.19-0.01c-0.04,0.01-0.09,0.02-0.13,0.02C63.04,70.71,63.02,70.7,63,70.7z M63.65,69.15
				c0.12,0.08,0.2,0.21,0.22,0.34C63.85,69.36,63.77,69.23,63.65,69.15z"/>
		</g>
	</g>
</g>
</svg>
